# xmcd
#
# Track frame offsets:
#	150
#	24126
#	50115
#	77294
#	101911
#	153814
#	185699
#	202995
#
# Disc length: 3486 seconds
#
# Revision: 1
# Processed by: cddbd v1.5.2PL0 Copyright (c) Steve Scherf et al.
# Submitted via: audiograbber 1.83.01
#
DISCID=590d9c08
DTITLE=Betts,Dickey&Great Southern - Live at Rockpalast 1978+2008 [CD 1)
DYEAR=2019
DGENRE=Blues
TTITLE0=Run gypsy run (Essen 1978)
TTITLE1=You can have her (Essen 1978)
TTITLE2=Leavin' me again (Essen 1978)
TTITLE3=Back on the road again (Essen 1978)
TTITLE4=In memory of Elizabeth Reed (Essen 1978)
TTITLE5=Good time feelin' (Essen 1978)
TTITLE6=Dealin' with the devil (Essen 1978)
TTITLE7=Jessica (Essen 1978)
EXTD=
EXTT0=
EXTT1=
EXTT2=
EXTT3=
EXTT4=
EXTT5=
EXTT6=
EXTT7=
PLAYORDER=
